<svg xmlns="http://www.w3.org/2000/svg" xmlns:xlink="http://www.w3.org/1999/xlink" width="1080" zoomAndPan="magnify" viewBox="0 0 810 809.999993" height="1080" preserveAspectRatio="xMidYMid meet" version="1.0"><defs><g/><clipPath id="1fa95d8965"><path d="M 60.664062 388 L 226 388 L 226 487.40625 L 60.664062 487.40625 Z M 60.664062 388 " clip-rule="nonzero"/></clipPath></defs><rect x="-81" width="972" fill="#ffffff" y="-80.999999" height="971.999992" fill-opacity="1"/><rect x="-81" width="972" fill="#000000" y="-80.999999" height="971.999992" fill-opacity="1"/><path fill="#ffffff" d="M 94.949219 332.3125 C 98.101562 328.714844 102.160156 324.871094 105.980469 320.613281 C 107.648438 318.757812 109.367188 316.296875 111.144531 313.234375 C 113.855469 308.566406 115.601562 303.5625 116.382812 298.210938 C 116.582031 296.839844 116.78125 295.476562 116.980469 294.125 C 116.988281 294.054688 117.027344 294.015625 117.097656 294.007812 C 117.167969 294 117.21875 294.027344 117.246094 294.09375 C 119.320312 299.273438 120.957031 303.917969 121.011719 309.816406 C 121.023438 311.421875 121.105469 313.058594 120.933594 314.589844 C 119.945312 323.441406 115.683594 330.414062 111.40625 337.976562 C 108.332031 343.410156 106.542969 349.441406 106.035156 356.078125 C 105.410156 364.199219 105.742188 371.523438 108.980469 378.714844 C 110.089844 381.175781 111.5 384.007812 113.210938 387.210938 C 116.480469 393.320312 119.699219 399.480469 122.519531 405.804688 C 122.5625 405.90625 122.539062 405.988281 122.449219 406.050781 C 122.359375 406.117188 122.273438 406.113281 122.191406 406.042969 C 121.511719 405.421875 120.808594 404.78125 120.066406 404.222656 C 114.261719 399.882812 109.257812 396.460938 103.851562 392.578125 C 93.527344 385.160156 83.636719 374.535156 83.292969 361.035156 C 83.011719 350.191406 88.050781 340.1875 94.949219 332.3125 Z M 94.949219 332.3125 " fill-opacity="1" fill-rule="nonzero"/><path fill="#ffffff" d="M 129.875 399.75 C 124.3125 394.628906 120.398438 388.492188 119.398438 380.917969 C 118.273438 372.367188 120.460938 363.515625 124.65625 356.042969 C 127.136719 351.621094 130.050781 347.476562 132.960938 343.332031 C 136.929688 337.679688 140.679688 331.371094 141.414062 324.515625 C 142.222656 316.953125 139.945312 308.78125 136.386719 302.113281 C 136.347656 302.035156 136.359375 301.96875 136.425781 301.910156 C 136.492188 301.851562 136.558594 301.847656 136.632812 301.898438 C 145.390625 308.136719 151.582031 316.5 152.894531 327.355469 C 153.980469 336.347656 150.183594 344.765625 143.585938 350.769531 C 141.066406 353.058594 138.339844 355.40625 136.164062 357.832031 C 129.75 364.988281 125.15625 373.398438 125.894531 383.332031 C 126.367188 389.6875 128.328125 395.554688 131.769531 400.925781 C 131.8125 400.988281 131.808594 401.046875 131.753906 401.101562 C 131.703125 401.152344 131.644531 401.160156 131.582031 401.125 C 130.898438 400.734375 130.433594 400.269531 129.875 399.75 Z M 129.875 399.75 " fill-opacity="1" fill-rule="nonzero"/><path fill="#ffffff" d="M 143.253906 402.757812 C 137.730469 397.742188 134.398438 391.097656 135.699219 383.527344 C 137.570312 372.660156 146.730469 366.949219 154.988281 361.234375 C 160.789062 357.21875 166.273438 351.257812 166.289062 343.789062 C 166.292969 343.691406 166.339844 343.636719 166.433594 343.617188 C 166.527344 343.601562 166.59375 343.636719 166.632812 343.722656 C 167.777344 346.625 168.664062 350.089844 168.351562 353.203125 C 167.28125 363.953125 158.203125 369.023438 151.230469 375.644531 C 150.609375 376.234375 149.578125 377.371094 148.140625 379.0625 C 145.097656 382.636719 142.894531 386.886719 142.496094 391.609375 C 142.15625 395.613281 143.191406 400 144.777344 403.722656 C 144.804688 403.785156 144.792969 403.839844 144.742188 403.882812 C 144.6875 403.929688 144.632812 403.933594 144.574219 403.894531 C 144.085938 403.59375 143.601562 403.074219 143.253906 402.757812 Z M 143.253906 402.757812 " fill-opacity="1" fill-rule="nonzero"/><g clip-path="url(#1fa95d8965)"><path fill="#ffffff" d="M 191.933594 415.839844 C 199.898438 408.867188 212.519531 409.378906 219.902344 416.929688 C 224.964844 422.109375 227.164062 429.644531 225.171875 436.898438 C 222.859375 445.332031 216.320312 452.15625 209.273438 456.855469 C 200.238281 462.875 189.5625 466.648438 178.699219 468.132812 C 177.464844 468.300781 176.226562 468.460938 174.988281 468.617188 C 173.183594 468.839844 171.453125 468.453125 169.949219 469.84375 C 158.980469 479.964844 144.691406 486.578125 129.644531 487.132812 C 124.226562 487.328125 119.496094 487.097656 114.277344 486.042969 C 99.203125 483.007812 85.742188 473.953125 76.363281 461.921875 C 68.101562 451.324219 63.097656 439.394531 61.351562 426.136719 C 61.175781 424.804688 61.058594 423.277344 61.003906 421.554688 C 60.871094 417.242188 60.769531 412.332031 60.703125 406.832031 C 60.679688 404.984375 60.746094 403.300781 60.90625 401.785156 C 61.511719 395.964844 68.160156 393.59375 73.121094 392.234375 C 78.042969 390.886719 83.039062 389.890625 88.105469 389.253906 C 89.039062 389.136719 89.625 388.90625 90.34375 389.71875 C 91.570312 391.101562 92.804688 392.445312 94.039062 393.746094 C 94.082031 393.789062 94.089844 393.839844 94.070312 393.894531 C 94.050781 393.949219 94.007812 393.980469 93.949219 393.984375 C 88.5625 394.539062 83.292969 395.457031 78.140625 396.742188 C 76.082031 397.253906 74.128906 398.011719 72.277344 399.015625 C 70.976562 399.722656 69.957031 400.621094 70.585938 402.15625 C 71.554688 404.515625 79.5625 406.371094 82.074219 406.832031 C 88.277344 407.972656 94.484375 408.664062 100.761719 409.195312 C 106.328125 409.667969 112.035156 409.964844 117.886719 410.089844 C 123.738281 410.21875 129.09375 410.382812 134.539062 410.199219 C 137.191406 410.109375 139.839844 410.039062 142.492188 409.984375 C 146.535156 409.902344 150.710938 409.515625 154.769531 409.128906 C 160.746094 408.5625 166.722656 407.867188 172.609375 406.660156 C 175.40625 406.085938 179.539062 405.085938 181.800781 403.339844 C 183.6875 401.878906 182.417969 399.863281 180.621094 399.007812 C 178.414062 397.960938 176.15625 397.179688 173.855469 396.675781 C 169.300781 395.667969 164.621094 394.90625 159.824219 394.386719 C 157.28125 394.109375 154.011719 394.007812 151.117188 393.710938 C 151.027344 393.703125 150.953125 393.660156 150.898438 393.585938 C 150.84375 393.507812 150.828125 393.425781 150.847656 393.335938 L 151.902344 388.734375 C 151.921875 388.648438 151.972656 388.609375 152.058594 388.609375 C 155.617188 388.683594 160.023438 389.039062 162.734375 389.3125 C 169.394531 389.980469 176.050781 391.09375 182.445312 393.269531 C 185.328125 394.246094 188.976562 396.066406 190.671875 398.492188 C 191.886719 400.226562 192.296875 402.417969 192.246094 404.546875 C 192.183594 407.191406 192.160156 409.835938 192.183594 412.480469 C 192.191406 413.597656 192.085938 414.703125 191.863281 415.800781 C 191.847656 415.882812 191.871094 415.898438 191.933594 415.839844 Z M 211.765625 420.964844 C 209.109375 419.277344 205.484375 418.632812 202.441406 419.382812 C 196.597656 420.828125 192.582031 425.792969 191.054688 431.414062 C 190.601562 433.085938 190.140625 434.753906 189.679688 436.425781 C 187.199219 445.429688 182.90625 453.882812 177.300781 461.367188 C 177.0625 461.6875 177.136719 461.8125 177.53125 461.746094 C 184.851562 460.507812 191.90625 458.097656 198.6875 454.511719 C 206.332031 450.46875 218.304688 441.320312 217.667969 431.46875 C 217.386719 427.117188 215.480469 423.320312 211.765625 420.964844 Z M 211.765625 420.964844 " fill-opacity="1" fill-rule="nonzero"/></g><g fill="#ffffff" fill-opacity="1"><g transform="translate(239.868479, 453.355149)"><g><path d="M 78.171875 -37.28125 C 78.773438 -39.3125 79.789062 -40.796875 81.21875 -41.734375 C 82.65625 -42.679688 84.125 -43.15625 85.625 -43.15625 C 87.363281 -43.15625 88.910156 -42.625 90.265625 -41.5625 C 91.617188 -40.507812 92.296875 -39.003906 92.296875 -37.046875 C 92.296875 -36.148438 92.144531 -35.285156 91.84375 -34.453125 C 89.582031 -27.671875 86.8125 -21.679688 83.53125 -16.484375 C 80.257812 -11.296875 76.421875 -7.25 72.015625 -4.34375 C 67.609375 -1.445312 62.582031 0 56.9375 0 C 53.164062 0 49.679688 -0.710938 46.484375 -2.140625 C 43.285156 -3.578125 40.707031 -5.6875 38.75 -8.46875 C 35.957031 -5.6875 32.8125 -3.578125 29.3125 -2.140625 C 25.8125 -0.710938 22.40625 0 19.09375 0 C 14.945312 0 11.195312 -0.882812 7.84375 -2.65625 C 4.5 -4.425781 1.847656 -6.851562 -0.109375 -9.9375 C -2.066406 -13.03125 -3.046875 -16.570312 -3.046875 -20.5625 C -3.046875 -23.269531 -2.519531 -26.09375 -1.46875 -29.03125 L 16.9375 -80.890625 C 18.21875 -84.503906 20.195312 -87.585938 22.875 -90.140625 C 25.550781 -92.703125 28.617188 -94.660156 32.078125 -96.015625 C 35.546875 -97.378906 39.125 -98.0625 42.8125 -98.0625 C 44.46875 -98.0625 46.3125 -97.851562 48.34375 -97.4375 C 50.382812 -97.019531 52.34375 -96.335938 54.21875 -95.390625 C 56.101562 -94.453125 57.613281 -93.117188 58.75 -91.390625 C 59.644531 -93.878906 61.164062 -95.757812 63.3125 -97.03125 C 65.457031 -98.3125 67.625 -98.953125 69.8125 -98.953125 C 71.925781 -98.953125 73.789062 -98.332031 75.40625 -97.09375 C 77.019531 -95.851562 77.828125 -93.914062 77.828125 -91.28125 C 77.828125 -89.84375 77.488281 -88.144531 76.8125 -86.1875 L 54.796875 -24.625 C 53.960938 -22.363281 53.546875 -20.441406 53.546875 -18.859375 C 53.546875 -17.359375 53.976562 -16.210938 54.84375 -15.421875 C 55.707031 -14.628906 56.859375 -14.234375 58.296875 -14.234375 C 61.984375 -14.234375 65.578125 -16.300781 69.078125 -20.4375 C 72.578125 -24.582031 75.609375 -30.195312 78.171875 -37.28125 Z M 22.9375 -17.0625 C 24.894531 -17.0625 26.773438 -17.472656 28.578125 -18.296875 C 30.390625 -19.128906 32.160156 -20.65625 33.890625 -22.875 C 35.617188 -25.09375 37.203125 -28.273438 38.640625 -32.421875 L 52.1875 -70.5 C 52.34375 -70.875 52.457031 -71.265625 52.53125 -71.671875 C 52.601562 -72.085938 52.640625 -72.484375 52.640625 -72.859375 C 52.640625 -75.191406 51.675781 -77.242188 49.75 -79.015625 C 47.832031 -80.785156 45.597656 -81.671875 43.046875 -81.671875 C 40.785156 -81.671875 38.726562 -80.898438 36.875 -79.359375 C 35.03125 -77.816406 33.617188 -75.726562 32.640625 -73.09375 L 17.0625 -28.6875 C 16.457031 -26.882812 16.15625 -25.34375 16.15625 -24.0625 C 16.15625 -22.03125 16.753906 -20.351562 17.953125 -19.03125 C 19.160156 -17.71875 20.820312 -17.0625 22.9375 -17.0625 Z M 22.9375 -17.0625 "/></g></g></g><g fill="#ffffff" fill-opacity="1"><g transform="translate(312.509818, 453.355149)"><g><path d="M 56.03125 -98.0625 C 61.832031 -98.0625 66.800781 -96.570312 70.9375 -93.59375 C 75.082031 -90.613281 77.796875 -86.90625 79.078125 -82.46875 C 79.378906 -81.332031 79.53125 -80.203125 79.53125 -79.078125 C 79.53125 -76.515625 78.679688 -74.5 76.984375 -73.03125 C 75.296875 -71.5625 73.429688 -70.828125 71.390625 -70.828125 C 69.890625 -70.828125 68.457031 -71.238281 67.09375 -72.0625 C 65.738281 -72.894531 64.6875 -74.179688 63.9375 -75.921875 C 62.957031 -77.878906 61.828125 -79.441406 60.546875 -80.609375 C 59.265625 -81.773438 57.757812 -82.394531 56.03125 -82.46875 C 55.207031 -82.539062 54.113281 -82.332031 52.75 -81.84375 C 51.394531 -81.351562 50.207031 -80.582031 49.1875 -79.53125 C 48.175781 -78.476562 47.671875 -77.125 47.671875 -75.46875 C 47.671875 -73.351562 48.421875 -71.085938 49.921875 -68.671875 C 51.429688 -66.265625 53.242188 -63.894531 55.359375 -61.5625 L 56.703125 -60.09375 C 59.046875 -57.539062 61.328125 -54.8125 63.546875 -51.90625 C 65.765625 -49.007812 67.625 -45.882812 69.125 -42.53125 C 70.632812 -39.175781 71.390625 -35.539062 71.390625 -31.625 C 71.390625 -27.257812 70.445312 -23.175781 68.5625 -19.375 C 66.6875 -15.570312 64.144531 -12.21875 60.9375 -9.3125 C 57.738281 -6.414062 54.066406 -4.140625 49.921875 -2.484375 C 45.785156 -0.828125 41.457031 0 36.9375 0 C 32.644531 0 28.539062 -0.695312 24.625 -2.09375 C 20.707031 -3.488281 17.222656 -5.484375 14.171875 -8.078125 C 11.128906 -10.671875 8.738281 -13.773438 7 -17.390625 C 5.269531 -21.003906 4.476562 -25.070312 4.625 -29.59375 C 4.625 -32.757812 5.582031 -35.148438 7.5 -36.765625 C 9.425781 -38.390625 11.519531 -39.203125 13.78125 -39.203125 C 15.96875 -39.203125 17.960938 -38.445312 19.765625 -36.9375 C 21.578125 -35.4375 22.484375 -33.066406 22.484375 -29.828125 C 22.484375 -29.597656 22.484375 -29.347656 22.484375 -29.078125 C 22.484375 -28.816406 22.445312 -28.535156 22.375 -28.234375 C 22.289062 -24.242188 23.660156 -21.117188 26.484375 -18.859375 C 29.316406 -16.609375 32.765625 -15.441406 36.828125 -15.359375 C 39.316406 -15.359375 41.726562 -15.941406 44.0625 -17.109375 C 46.394531 -18.273438 48.332031 -19.96875 49.875 -22.1875 C 51.414062 -24.414062 52.1875 -27.035156 52.1875 -30.046875 C 52.1875 -33.441406 51.128906 -36.566406 49.015625 -39.421875 C 46.910156 -42.285156 44.539062 -45.335938 41.90625 -48.578125 C 39.800781 -51.210938 37.726562 -53.828125 35.6875 -56.421875 C 33.65625 -59.023438 31.976562 -61.753906 30.65625 -64.609375 C 29.34375 -67.472656 28.6875 -70.523438 28.6875 -73.765625 C 28.6875 -74.816406 28.800781 -75.890625 29.03125 -76.984375 C 29.257812 -78.078125 29.523438 -79.191406 29.828125 -80.328125 C 31.109375 -84.160156 33.101562 -87.394531 35.8125 -90.03125 C 38.519531 -92.664062 41.644531 -94.660156 45.1875 -96.015625 C 48.726562 -97.378906 52.34375 -98.0625 56.03125 -98.0625 Z M 56.03125 -98.0625 "/></g></g><g transform="translate(389.331151, 453.355149)"><g><path d="M 83.03125 -37.625 C 83.476562 -39.28125 84.398438 -40.484375 85.796875 -41.234375 C 87.191406 -41.984375 88.679688 -42.359375 90.265625 -42.359375 C 91.992188 -42.359375 93.570312 -41.882812 95 -40.9375 C 96.4375 -40 97.15625 -38.664062 97.15625 -36.9375 C 97.15625 -36.113281 97.003906 -35.25 96.703125 -34.34375 C 94.515625 -27.71875 91.78125 -21.804688 88.5 -16.609375 C 85.226562 -11.410156 81.390625 -7.34375 76.984375 -4.40625 C 72.578125 -1.46875 67.550781 0 61.90625 0 C 57.988281 0 54.410156 -0.769531 51.171875 -2.3125 C 47.929688 -3.851562 45.332031 -6.054688 43.375 -8.921875 C 41.414062 -11.785156 40.4375 -15.210938 40.4375 -19.203125 C 40.4375 -21.910156 40.890625 -24.660156 41.796875 -27.453125 C 42.847656 -30.390625 43.75 -32.910156 44.5 -35.015625 C 45.257812 -37.128906 46.164062 -39.726562 47.21875 -42.8125 C 43.832031 -42.8125 40.578125 -42.789062 37.453125 -42.75 C 34.328125 -42.71875 30.992188 -42.703125 27.453125 -42.703125 C 26.316406 -39.234375 25.035156 -35.410156 23.609375 -31.234375 C 22.179688 -27.054688 20.75 -22.875 19.3125 -18.6875 C 17.882812 -14.507812 16.566406 -10.691406 15.359375 -7.234375 C 14.609375 -4.671875 13.347656 -2.820312 11.578125 -1.6875 C 9.804688 -0.5625 7.976562 0 6.09375 0 C 3.84375 0 1.8125 -0.710938 0 -2.140625 C -1.8125 -3.578125 -2.71875 -5.5 -2.71875 -7.90625 C -2.71875 -9.039062 -2.488281 -10.207031 -2.03125 -11.40625 L 8.703125 -42.703125 L 5.984375 -42.703125 C 3.878906 -42.703125 2.1875 -43.4375 0.90625 -44.90625 C -0.375 -46.375 -1.015625 -47.972656 -1.015625 -49.703125 C -1.015625 -51.515625 -0.265625 -53.171875 1.234375 -54.671875 C 2.742188 -56.179688 5.234375 -56.9375 8.703125 -56.9375 L 13.671875 -56.9375 L 25.078125 -89.46875 C 25.910156 -92.40625 27.304688 -94.570312 29.265625 -95.96875 C 31.222656 -97.363281 33.179688 -98.0625 35.140625 -98.0625 C 37.171875 -98.0625 38.972656 -97.363281 40.546875 -95.96875 C 42.128906 -94.570312 42.921875 -92.554688 42.921875 -89.921875 C 42.921875 -88.410156 42.660156 -86.867188 42.140625 -85.296875 L 32.421875 -56.9375 L 51.96875 -56.9375 C 53.09375 -60.175781 54.273438 -63.734375 55.515625 -67.609375 C 56.765625 -71.484375 58.03125 -75.359375 59.3125 -79.234375 C 60.59375 -83.117188 61.796875 -86.679688 62.921875 -89.921875 C 63.972656 -92.785156 65.382812 -94.859375 67.15625 -96.140625 C 68.925781 -97.421875 70.753906 -98.0625 72.640625 -98.0625 C 74.828125 -98.0625 76.785156 -97.269531 78.515625 -95.6875 C 80.242188 -94.101562 81.109375 -91.992188 81.109375 -89.359375 C 81.109375 -88.222656 80.882812 -86.90625 80.4375 -85.40625 L 59.765625 -24.625 C 59.003906 -22.4375 58.625 -20.554688 58.625 -18.984375 C 58.625 -17.328125 59.035156 -16.117188 59.859375 -15.359375 C 60.691406 -14.609375 61.828125 -14.234375 63.265625 -14.234375 C 66.953125 -14.234375 70.523438 -16.300781 73.984375 -20.4375 C 77.453125 -24.582031 80.46875 -30.3125 83.03125 -37.625 Z M 83.03125 -37.625 "/></g></g><g transform="translate(466.94329, 453.355149)"><g/></g><g transform="translate(510.098803, 453.355149)"><g><path d="M 59.421875 -33.890625 C 59.796875 -35.617188 60.625 -36.859375 61.90625 -37.609375 C 63.1875 -38.367188 64.539062 -38.75 65.96875 -38.75 C 67.707031 -38.75 69.3125 -38.203125 70.78125 -37.109375 C 72.25 -36.015625 72.984375 -34.488281 72.984375 -32.53125 C 72.984375 -31.851562 72.867188 -31.0625 72.640625 -30.15625 C 70.910156 -24.664062 68.484375 -19.976562 65.359375 -16.09375 C 62.234375 -12.21875 58.710938 -9.113281 54.796875 -6.78125 C 50.878906 -4.445312 46.8125 -2.734375 42.59375 -1.640625 C 38.375 -0.546875 34.304688 0 30.390625 0 C 23.835938 0 18.054688 -1.179688 13.046875 -3.546875 C 8.035156 -5.921875 4.132812 -9.140625 1.34375 -13.203125 C -1.4375 -17.273438 -2.828125 -21.757812 -2.828125 -26.65625 C -2.828125 -30.195312 -2.1875 -33.773438 -0.90625 -37.390625 L 13.21875 -77.71875 C 14.726562 -81.9375 16.570312 -85.378906 18.75 -88.046875 C 20.9375 -90.722656 23.304688 -92.773438 25.859375 -94.203125 C 28.421875 -95.640625 30.945312 -96.640625 33.4375 -97.203125 C 35.925781 -97.773438 38.1875 -98.0625 40.21875 -98.0625 C 44.507812 -98.0625 48.367188 -97.285156 51.796875 -95.734375 C 55.222656 -94.191406 57.929688 -91.953125 59.921875 -89.015625 C 61.921875 -86.078125 62.921875 -82.539062 62.921875 -78.40625 C 62.921875 -77.195312 62.828125 -75.929688 62.640625 -74.609375 C 62.453125 -73.296875 62.171875 -71.882812 61.796875 -70.375 C 60.816406 -66.6875 59.328125 -64.070312 57.328125 -62.53125 C 55.335938 -60.988281 53.363281 -60.21875 51.40625 -60.21875 C 49.21875 -60.21875 47.296875 -60.929688 45.640625 -62.359375 C 43.984375 -63.785156 43.15625 -65.476562 43.15625 -67.4375 C 43.15625 -68.34375 43.304688 -69.132812 43.609375 -69.8125 C 44.515625 -72.070312 44.96875 -74.03125 44.96875 -75.6875 C 44.96875 -77.414062 44.550781 -78.675781 43.71875 -79.46875 C 42.882812 -80.257812 41.832031 -80.65625 40.5625 -80.65625 C 39.65625 -80.65625 38.597656 -80.445312 37.390625 -80.03125 C 36.179688 -79.625 34.957031 -78.816406 33.71875 -77.609375 C 32.476562 -76.398438 31.40625 -74.554688 30.5 -72.078125 L 16.265625 -32.421875 C 15.960938 -31.441406 15.734375 -30.476562 15.578125 -29.53125 C 15.429688 -28.59375 15.359375 -27.710938 15.359375 -26.890625 C 15.359375 -24.398438 16.222656 -22.191406 17.953125 -20.265625 C 19.691406 -18.347656 21.914062 -16.84375 24.625 -15.75 C 27.332031 -14.664062 30.15625 -14.125 33.09375 -14.125 C 36.113281 -14.125 39.316406 -14.78125 42.703125 -16.09375 C 46.085938 -17.414062 49.285156 -19.523438 52.296875 -22.421875 C 55.316406 -25.328125 57.691406 -29.148438 59.421875 -33.890625 Z M 59.421875 -33.890625 "/></g></g><g transform="translate(565.342379, 453.355149)"><g><path d="M 70.828125 -38.1875 C 72.484375 -38.1875 73.929688 -37.695312 75.171875 -36.71875 C 76.421875 -35.738281 77.046875 -34.269531 77.046875 -32.3125 C 77.046875 -31.332031 76.78125 -30.085938 76.25 -28.578125 C 75.726562 -27.078125 75.050781 -25.234375 74.21875 -23.046875 C 71.8125 -16.941406 68.929688 -12.234375 65.578125 -8.921875 C 62.222656 -5.609375 58.753906 -3.289062 55.171875 -1.96875 C 51.597656 -0.65625 48.234375 0 45.078125 0 C 43.941406 0 42.414062 -0.148438 40.5 -0.453125 C 38.582031 -0.753906 36.660156 -1.335938 34.734375 -2.203125 C 32.816406 -3.066406 31.253906 -4.363281 30.046875 -6.09375 C 27.941406 -4.21875 25.585938 -2.734375 22.984375 -1.640625 C 20.390625 -0.546875 17.773438 0 15.140625 0 C 11.828125 0 8.851562 -0.769531 6.21875 -2.3125 C 3.582031 -3.851562 1.492188 -5.921875 -0.046875 -8.515625 C -1.597656 -11.117188 -2.375 -13.96875 -2.375 -17.0625 C -2.375 -18.113281 -2.257812 -19.144531 -2.03125 -20.15625 C -1.800781 -21.175781 -1.539062 -22.175781 -1.25 -23.15625 L 9.375 -53.546875 C 10.882812 -57.910156 13.445312 -61.128906 17.0625 -63.203125 C 20.675781 -65.273438 24.328125 -66.3125 28.015625 -66.3125 C 30.878906 -66.3125 33.382812 -65.972656 35.53125 -65.296875 C 37.675781 -64.617188 39.351562 -63.90625 40.5625 -63.15625 C 41.457031 -64.582031 42.660156 -65.648438 44.171875 -66.359375 C 45.679688 -67.078125 47.222656 -67.4375 48.796875 -67.4375 C 50.910156 -67.4375 52.8125 -66.796875 54.5 -65.515625 C 56.195312 -64.234375 57.046875 -62.351562 57.046875 -59.875 C 57.046875 -58.738281 56.820312 -57.492188 56.375 -56.140625 L 43.71875 -19.546875 C 43.34375 -18.191406 43.15625 -17.097656 43.15625 -16.265625 C 43.15625 -14.378906 44.171875 -13.4375 46.203125 -13.4375 C 47.929688 -13.4375 49.796875 -14.019531 51.796875 -15.1875 C 53.796875 -16.351562 55.773438 -18.289062 57.734375 -21 C 59.691406 -23.71875 61.382812 -27.375 62.8125 -31.96875 C 63.488281 -34.15625 64.597656 -35.738281 66.140625 -36.71875 C 67.679688 -37.695312 69.242188 -38.1875 70.828125 -38.1875 Z M 33.546875 -39.3125 C 34.453125 -42.175781 34.90625 -44.398438 34.90625 -45.984375 C 34.90625 -47.941406 34.414062 -49.425781 33.4375 -50.4375 C 32.457031 -51.457031 31.441406 -51.96875 30.390625 -51.96875 C 29.484375 -51.96875 28.332031 -51.535156 26.9375 -50.671875 C 25.550781 -49.804688 24.328125 -47.640625 23.265625 -44.171875 L 16.046875 -21.46875 C 15.890625 -20.9375 15.734375 -20.347656 15.578125 -19.703125 C 15.429688 -19.066406 15.359375 -18.375 15.359375 -17.625 C 15.359375 -14.832031 16.601562 -13.4375 19.09375 -13.4375 C 20.300781 -13.4375 21.804688 -14.019531 23.609375 -15.1875 C 25.421875 -16.351562 26.925781 -18.785156 28.125 -22.484375 Z M 33.546875 -39.3125 "/></g></g><g transform="translate(624.652966, 453.355149)"><g><path d="M 11.078125 -52.875 L 8.703125 -52.875 C 6.960938 -52.875 5.582031 -53.457031 4.5625 -54.625 C 3.550781 -55.789062 3.046875 -57.164062 3.046875 -58.75 C 3.046875 -60.550781 3.835938 -62.257812 5.421875 -63.875 C 7.003906 -65.5 9.523438 -66.3125 12.984375 -66.3125 L 15.921875 -66.3125 L 22.8125 -85.75 C 24.925781 -91.625 28.144531 -95.953125 32.46875 -98.734375 C 36.800781 -101.523438 41.378906 -102.921875 46.203125 -102.921875 C 49.515625 -102.921875 52.488281 -102.164062 55.125 -100.65625 C 57.757812 -99.144531 59.847656 -97.070312 61.390625 -94.4375 C 62.941406 -91.800781 63.71875 -88.828125 63.71875 -85.515625 C 63.71875 -84.765625 63.660156 -84.03125 63.546875 -83.3125 C 63.429688 -82.59375 63.300781 -81.820312 63.15625 -81 C 62.550781 -78.207031 61.421875 -76.207031 59.765625 -75 C 58.109375 -73.800781 56.375 -73.203125 54.5625 -73.203125 C 52.601562 -73.203125 50.8125 -73.820312 49.1875 -75.0625 C 47.570312 -76.3125 46.765625 -77.914062 46.765625 -79.875 C 46.765625 -80.925781 47.03125 -81.976562 47.5625 -83.03125 C 47.789062 -83.863281 47.90625 -84.578125 47.90625 -85.171875 C 47.90625 -86.148438 47.660156 -86.941406 47.171875 -87.546875 C 46.679688 -88.148438 45.832031 -88.453125 44.625 -88.453125 C 43.644531 -88.453125 42.679688 -88.054688 41.734375 -87.265625 C 40.796875 -86.472656 40.101562 -85.398438 39.65625 -84.046875 L 33.328125 -66.3125 L 37.953125 -66.3125 C 40.066406 -66.3125 41.6875 -65.6875 42.8125 -64.4375 C 43.945312 -63.195312 44.515625 -61.789062 44.515625 -60.21875 C 44.515625 -58.5625 43.875 -56.957031 42.59375 -55.40625 C 41.3125 -53.863281 39.351562 -53.054688 36.71875 -52.984375 L 28.46875 -52.875 L -2.71875 36.03125 C -3.613281 38.664062 -4.890625 40.566406 -6.546875 41.734375 C -8.203125 42.910156 -9.898438 43.5 -11.640625 43.5 C -13.742188 43.5 -15.625 42.78125 -17.28125 41.34375 C -18.9375 39.914062 -19.765625 38.035156 -19.765625 35.703125 C -19.765625 34.492188 -19.539062 33.285156 -19.09375 32.078125 Z M 11.078125 -52.875 "/></g></g><g transform="translate(660.804181, 453.355149)"><g><path d="M 57.15625 -31.859375 C 57.6875 -33.585938 58.6875 -34.882812 60.15625 -35.75 C 61.625 -36.613281 63.148438 -37.046875 64.734375 -37.046875 C 66.460938 -37.046875 67.984375 -36.578125 69.296875 -35.640625 C 70.617188 -34.703125 71.28125 -33.363281 71.28125 -31.625 C 71.28125 -30.875 71.128906 -30.085938 70.828125 -29.265625 C 68.347656 -22.109375 64.882812 -16.378906 60.4375 -12.078125 C 55.988281 -7.785156 51.09375 -4.695312 45.75 -2.8125 C 40.40625 -0.9375 35.097656 0 29.828125 0 C 24.328125 0 19.375 -0.882812 14.96875 -2.65625 C 10.5625 -4.425781 7.078125 -6.945312 4.515625 -10.21875 C 1.953125 -13.5 0.671875 -17.359375 0.671875 -21.796875 C 0.671875 -23.078125 0.800781 -24.394531 1.0625 -25.75 C 1.332031 -27.113281 1.691406 -28.472656 2.140625 -29.828125 L 8.8125 -49.140625 C 10.769531 -54.785156 13.96875 -59.054688 18.40625 -61.953125 C 22.851562 -64.859375 27.597656 -66.3125 32.640625 -66.3125 C 36.941406 -66.3125 40.671875 -65.484375 43.828125 -63.828125 C 46.992188 -62.171875 49.460938 -59.910156 51.234375 -57.046875 C 53.003906 -54.179688 53.890625 -50.941406 53.890625 -47.328125 C 53.890625 -45.453125 53.585938 -43.382812 52.984375 -41.125 C 51.472656 -36.070312 48.644531 -32.039062 44.5 -29.03125 C 40.363281 -26.019531 35.734375 -24.515625 30.609375 -24.515625 C 28.347656 -24.515625 26.21875 -24.832031 24.21875 -25.46875 C 22.226562 -26.113281 20.40625 -26.925781 18.75 -27.90625 L 17.84375 -25.75 C 17.625 -25.226562 17.472656 -24.703125 17.390625 -24.171875 C 17.316406 -23.648438 17.28125 -23.125 17.28125 -22.59375 C 17.28125 -20.03125 18.484375 -17.863281 20.890625 -16.09375 C 23.304688 -14.320312 26.585938 -13.4375 30.734375 -13.4375 C 33.960938 -13.4375 37.289062 -14.054688 40.71875 -15.296875 C 44.144531 -16.546875 47.328125 -18.523438 50.265625 -21.234375 C 53.203125 -23.953125 55.5 -27.492188 57.15625 -31.859375 Z M 32.3125 -52.984375 C 31.03125 -52.984375 29.75 -52.492188 28.46875 -51.515625 C 27.1875 -50.535156 26.242188 -49.179688 25.640625 -47.453125 L 23.265625 -40.671875 C 24.847656 -39.765625 26.804688 -39.3125 29.140625 -39.3125 C 30.878906 -39.3125 32.5 -39.6875 34 -40.4375 C 35.507812 -41.195312 36.523438 -42.515625 37.046875 -44.390625 C 37.347656 -45.222656 37.5 -46.128906 37.5 -47.109375 C 37.5 -48.765625 37.03125 -50.15625 36.09375 -51.28125 C 35.15625 -52.414062 33.894531 -52.984375 32.3125 -52.984375 Z M 32.3125 -52.984375 "/></g></g></g></svg>